# xmcd
#
# Track frame offsets:
#	150
#	14893
#	29437
#	45416
#	59083
#	76161
#	93871
#	107363
#	125149
#	142981
#	155510
#	169141
#	182206
#	196977
#	211349
#	227578
#	243358
#	259028
#	274479
#	289647
#	303221
#	317509
#
# Disc length: 4404 seconds
#
# Revision: 0
# Processed by: cddbd v1.5.2PL0 Copyright (c) Steve Scherf et al.
# Submitted via: EZCDAudioConverter 3.1.0.1
#
DISCID=34113216
DTITLE=Hott Country Volume 244 CAN
DYEAR=2016
DGENRE=country
TTITLE0=Chris Young ft. Vince Gill - Sober Saturday Night
TTITLE1=Old Dominion - Song For Another Time
TTITLE2=Chad Brownlee - I Hate You For It
TTITLE3=Dierks Bentley ft. Elle King - Different For Girls
TTITLE4=Cole Swindell - Middle Of A Memory
TTITLE5=Brad Paisley ft. Demi Lovato - Without A Fight
TTITLE6=Jerrod Niemann and Lee Brice - A Little More Love
TTITLE7=Brett Eldredge - Wanna Be That Song
TTITLE8=Sam Hunt - Raised On It
TTITLE9=Maddie and Tae - Sierra
TTITLE10=Runaway June - Lipstick
TTITLE11=Gary Allan - Do You Wish It Was Me
TTITLE12=James Barker Band - Lawn Chair Lazy
TTITLE13=Cassadee Pope - Summer
TTITLE14=Josh Turner - Hometown Girl
TTITLE15=The Cadillac Three - Drunk Like You
TTITLE16=Leah Daniels - Your Kiss Is Killing Me
TTITLE17=Thompson Square - You Make It Look So Good
TTITLE18=Tebey - Lightweight
TTITLE19=Kira Isabella - I'm So Over Getting Over You
TTITLE20=The Abrams - Fine
TTITLE21=River Town Saints - Cherry Bomb
EXTD=
EXTT0=
EXTT1=
EXTT2=
EXTT3=
EXTT4=
EXTT5=
EXTT6=
EXTT7=
EXTT8=
EXTT9=
EXTT10=
EXTT11=
EXTT12=
EXTT13=
EXTT14=
EXTT15=
EXTT16=
EXTT17=
EXTT18=
EXTT19=
EXTT20=
EXTT21=
PLAYORDER=
